<?xml version="1.0" encoding="utf-8"?>
<!-- Generator: Adobe Illustrator 28.3.0, SVG Export Plug-In . SVG Version: 6.00 Build 0)  -->
<svg version="1.1" id="レイヤー_1" xmlns="http://www.w3.org/2000/svg" xmlns:xlink="http://www.w3.org/1999/xlink" x="0px"
	 y="0px" width="200px" height="55px" viewBox="0 0 200 55" style="enable-background:new 0 0 200 55;" xml:space="preserve">
<style type="text/css">
	.st0{fill:#FFF35F;}
	.st1{fill:#E95513;}
</style>
<g>
	<g>
		<polygon class="st0" points="48.67,52.8 9.91,52.8 9.91,25.51 29.29,11.67 48.67,25.51 		"/>
		<polygon class="st1" points="14.96,29.42 29.29,15.09 43.62,29.42 58.58,29.42 29.29,0.13 0,29.42 		"/>
		<rect x="24.63" y="33.86" class="st1" width="9.32" height="18.94"/>
		<rect y="52.8" class="st1" width="58.58" height="2.07"/>
	</g>
	<g>
		<g>
			<path class="st1" d="M98.32,42.72c0,0.31-0.07,0.5-0.2,0.58c-0.06,0.04-0.27,0.08-0.62,0.11c-0.9,0.09-2.17,0.13-3.81,0.13
				c-2.32,0-3.68-0.04-4.08-0.13C89.2,43.32,89,43.12,89,42.81c0-1.17,0.06-2.92,0.17-5.26c0.11-2.34,0.17-4.09,0.17-5.26
				c0-0.57-0.16-0.91-0.49-1c-0.5-0.12-2.29-0.18-5.36-0.18c-3.08,0-4.89,0.06-5.4,0.18c-0.33,0.07-0.49,0.41-0.49,1
				c0,1.15,0.04,2.87,0.11,5.17c0.07,2.3,0.11,4.02,0.11,5.17c0,0.44-0.2,0.7-0.6,0.77c-0.47,0.09-1.86,0.13-4.16,0.13
				c-1.99,0-3.26-0.04-3.81-0.13c-0.43-0.07-0.64-0.3-0.64-0.69c0-1.59,0.08-4,0.23-7.22c0.16-3.22,0.23-5.63,0.23-7.24
				c0-1.71-0.07-4.28-0.22-7.71c-0.15-3.43-0.22-6-0.22-7.71c0-0.32,0.15-0.49,0.47-0.49c0.46,0,1.15,0.02,2.07,0.07
				c0.92,0.04,1.61,0.07,2.07,0.07c0.47,0,1.18-0.02,2.14-0.07c0.95-0.05,1.66-0.07,2.14-0.07c0.25,0,0.38,0.13,0.38,0.4
				c0,1.11-0.08,2.76-0.24,4.97c-0.16,2.21-0.24,3.86-0.24,4.97c0,0.52,0.14,0.82,0.42,0.91c0.38,0.12,2.27,0.18,5.67,0.18
				c3.16,0,4.99-0.06,5.49-0.18c0.35-0.09,0.53-0.39,0.53-0.91c0-1.06-0.05-2.67-0.15-4.81c-0.1-2.15-0.15-3.76-0.15-4.84
				c0-0.46,0.18-0.69,0.55-0.69c0.43,0,1.08,0.02,1.96,0.07c0.88,0.04,1.54,0.07,1.98,0.07c0.43,0,1.08-0.02,1.96-0.07
				c0.88-0.05,1.54-0.07,1.98-0.07c0.43,0,0.64,0.18,0.64,0.53c0,1.7-0.07,4.26-0.21,7.68c-0.14,3.42-0.21,5.99-0.21,7.7
				c0,1.61,0.08,4.02,0.23,7.24S98.32,41.13,98.32,42.72z"/>
			<path class="st1" d="M128.82,32.54c0,3.76-0.45,6.33-1.35,7.7c-1.65,2.51-5.78,3.76-12.37,3.76c-2.98,0-5.28-0.23-6.89-0.69
				c-2.57-0.74-4.23-2.15-5-4.23c-0.38-1.02-0.58-2.83-0.58-5.45c0-0.61,0.02-1.51,0.07-2.7c0.04-1.2,0.07-2.09,0.07-2.68
				c0-1.71-0.08-4.28-0.24-7.7c-0.16-3.42-0.24-5.98-0.24-7.68c0-0.35,0.15-0.53,0.47-0.53c0.9,0,2.26,0.04,4.08,0.11
				c1.82,0.07,3.18,0.11,4.08,0.11c0.37,0,0.55,0.16,0.55,0.49c0,1.95-0.06,4.87-0.19,8.76c-0.13,3.89-0.19,6.81-0.19,8.75
				c0,2.32,0.24,3.88,0.73,4.69c0.65,1.11,2.01,1.66,4.07,1.66c3.02,0,4.54-1.47,4.54-4.41c0-2.14-0.05-5.35-0.15-9.63
				c-0.1-4.28-0.15-7.49-0.15-9.63c0-0.46,0.18-0.69,0.55-0.69c0.87,0,2.18-0.04,3.94-0.11c1.76-0.07,3.07-0.11,3.94-0.11
				c0.43,0,0.64,0.18,0.64,0.53c0,1.7-0.07,4.26-0.21,7.68c-0.14,3.42-0.21,5.99-0.21,7.7c0,0.47,0.01,1.18,0.02,2.14
				S128.82,32.07,128.82,32.54z"/>
			<path class="st1" d="M166.19,42.72c0,0.46-0.21,0.69-0.64,0.69h-7.84c-0.43,0-0.64-0.26-0.64-0.77c0-1.49,0.06-3.73,0.17-6.71
				c0.11-2.98,0.17-5.22,0.17-6.71c0-0.43-0.07-0.66-0.2-0.69c-0.16,0.09-1.15,2.37-2.97,6.84c-1.06,2.63-2.12,5.25-3.19,7.86
				c-0.15,0.34-0.33,0.54-0.55,0.6c-0.07,0.01-0.37,0.02-0.89,0.02c-0.77,0-1.23-0.15-1.37-0.44c-0.8-1.62-1.84-3.98-3.14-7.08
				c-1.39-3.28-2.43-5.64-3.12-7.11c-0.03-0.07-0.1-0.16-0.2-0.24c-0.1,0.13-0.16,0.35-0.16,0.64c0,1.45,0.04,3.62,0.11,6.51
				c0.07,2.89,0.11,5.06,0.11,6.51c0,0.52-0.21,0.77-0.62,0.77h-7.39c-0.3,0-0.48-0.05-0.54-0.14c-0.07-0.1-0.1-0.26-0.1-0.5
				c0-1.61,0.08-4.03,0.23-7.25c0.16-3.23,0.23-5.64,0.23-7.25c0-1.71-0.07-4.92-0.22-9.63c-0.01-1.23-0.08-3.05-0.2-5.47
				l-0.02-0.38c-0.01-0.3,0.3-0.44,0.93-0.44c0.81,0,2.03-0.03,3.65-0.08s2.84-0.08,3.65-0.08c0.16,0,0.39,0.31,0.69,0.93
				l6.46,14.19c0.46,0.96,0.84,1.44,1.15,1.44c0.16,0,0.51-0.55,1.04-1.66c1.49-3.1,3.7-7.77,6.62-14.01
				c0.25-0.58,0.52-0.86,0.82-0.86c0.43,0,1.07,0.02,1.94,0.07c0.86,0.04,1.52,0.07,1.96,0.07c0.37,0,0.93-0.04,1.69-0.11
				c0.76-0.07,1.32-0.11,1.69-0.11c0.44,0,0.66,0.18,0.66,0.53c0,1.74-0.06,4.34-0.19,7.8c-0.13,3.46-0.19,6.06-0.19,7.8
				c0,1.61,0.07,4.02,0.2,7.24C166.12,38.72,166.19,41.13,166.19,42.72z"/>
			<path class="st1" d="M199.5,42.86c0,0.27-0.18,0.45-0.55,0.55c-0.44,0.12-1.82,0.18-4.12,0.18c-2.11,0-3.47-0.06-4.07-0.18
				c-0.5-0.1-0.82-0.44-0.95-1c-0.5-2.13-0.89-3.26-1.17-3.41c-0.24-0.1-2.21-0.15-5.93-0.15c-2.51,0-3.84,0.07-4.01,0.2
				c-0.25,0.24-0.53,1.03-0.84,2.37c-0.28,1.23-0.62,1.89-1.02,1.99c-0.5,0.12-2.18,0.18-5.05,0.18c-2.26,0-3.39-0.21-3.39-0.64
				c0-0.38,1.67-5.1,5-14.15c3.62-9.78,5.58-15.16,5.89-16.14c0.18-0.56,0.38-0.84,0.62-0.84c0.4,0,1.01,0.04,1.85,0.11
				c0.83,0.07,1.46,0.11,1.87,0.11c0.4,0,0.99-0.03,1.76-0.08c0.78-0.05,1.35-0.08,1.74-0.08c0.28,0,0.54,0.24,0.78,0.73
				c0.72,1.55,2.83,6.86,6.33,15.94C197.75,37.69,199.5,42.46,199.5,42.86z M183.81,22.69c-0.31,0.65-0.83,2.06-1.57,4.23
				c-0.8,2.3-1.2,3.65-1.2,4.05c0,0.27,0.44,0.41,1.33,0.44c0.46,0.03,1.21,0.04,2.26,0.04c0.97,0,1.51-0.12,1.62-0.35
				c0.03-0.07,0.04-0.18,0.04-0.31c0-0.49-0.34-1.83-1.02-4.03C184.61,24.64,184.12,23.28,183.81,22.69z"/>
		</g>
	</g>
	<g>
		<g>
			<path class="st1" d="M71.1,47.89l1.37,0.49c-0.81,2.03-1.42,4.02-1.82,5.98l-1.52-0.52L71.1,47.89z M74.07,49.44l2.03,4.28
				l-1.43,0.58c-0.3-0.83-0.62-1.6-0.94-2.31c-0.28-0.61-0.61-1.26-0.97-1.97L74.07,49.44z"/>
			<path class="st1" d="M83.13,48.38c-0.38,0.79-0.75,1.57-1.09,2.34c-0.35,0.87-0.65,1.68-0.91,2.43h0.73l2.76-0.18l-1.03-2.49
				l1.4-0.49c0.32,0.69,0.65,1.37,0.97,2.03c0.22,0.49,0.35,0.89,0.4,1.22c0.04,0.36-0.09,0.65-0.4,0.85
				c-0.28,0.18-0.66,0.28-1.12,0.3l-2.31,0.12c-1.09,0.06-1.81,0.05-2.16-0.03c-0.41-0.08-0.66-0.3-0.76-0.67
				c-0.08-0.26-0.08-0.54,0-0.82c0.1-0.4,0.23-0.79,0.39-1.15c0.34-0.79,0.69-1.54,1.03-2.25l0.82-1.76L83.13,48.38z"/>
			<path class="st1" d="M93.8,49.26l-3.55,0.52l-0.12-1.52l2.67-0.24c0.39-0.04,0.74-0.07,1.06-0.09c0.42-0.02,0.77,0.02,1.03,0.12
				c0.47,0.18,0.7,0.48,0.7,0.88c0,0.24-0.07,0.5-0.21,0.76c-0.1,0.2-0.29,0.48-0.58,0.82l-0.91,1.12l2.43,1.97l-1.18,1.03
				l-2.25-1.88l-1.85,1.91l-1.18-0.97l1.31-1.37c0.45-0.49,0.85-0.92,1.22-1.31C92.94,50.41,93.42,49.83,93.8,49.26z"/>
			<path class="st1" d="M102.32,47.77l1.28,0.46l-0.33,0.49l2-0.24c0.55-0.06,0.94,0.05,1.19,0.33c0.14,0.16,0.18,0.41,0.12,0.73
				c-0.08,0.39-0.23,0.75-0.46,1.09l-0.85,1.31l0.88,0.46l-0.7,1.15l-0.88-0.55l-1.22,1.64l-1.28-0.58l1.25-1.73l-1.49-0.76
				l0.79-1.03l1.4,0.73l0.85-1.49l-2.52,0.3l-1.31,2.13l-1.22-0.67L102.32,47.77z"/>
			<path class="st1" d="M110.1,50.69l6.5-0.09l-0.03,1c-1.48,0.04-2.8,0.09-3.98,0.15c-0.43,0.04-1.26,0.13-2.49,0.27V50.69z"/>
			<path class="st1" d="M126.19,49.32l2.25-0.24l0.18-1.31l1.52,0.06l-0.24,1.18l0.88-0.03c0.79-0.02,1.32,0.12,1.61,0.42
				c0.2,0.22,0.28,0.49,0.24,0.79c-0.02,0.2-0.09,0.42-0.21,0.64l-1.94,3.8l-1.37-0.42l2-4.1l-3.58,0.36l-0.18,1.49l-1.55,0.09
				L126.19,49.32z"/>
			<path class="st1" d="M136.16,49.78l1.22-0.03l0.06-1.67h1.34l-0.06,1.64h1.34l0.21-1.76l1.49-0.06l-0.15,1.82h1.37v1.25
				l-1.55-0.06l-0.85,3.86l-1.43-0.36c0.2-0.75,0.34-1.32,0.43-1.7c0.06-0.32,0.16-0.9,0.3-1.73l-1.19,0.09l0.03,1.91l-1.4,0.09
				V51.2l-1.18,0.15L136.16,49.78z"/>
			<path class="st1" d="M149.17,51.75l-0.21-1.28l-2.13,0.24l-0.06-1.19l1.97-0.12l-0.27-1.52l1.46-0.12l0.27,1.55l2.46-0.12
				l0.09,1.09l-2.34,0.06l0.21,1.37l2.52-0.06v1.15l-2.34,0.03l0.24,1.64l-1.52,0.09l-0.21-1.61l-2.82,0.3l-0.03-1.4L149.17,51.75z
				 M151.93,47.8l0.45,1.19l-0.73,0.21l-0.46-1.18L151.93,47.8z M152.78,47.59l0.55,1.25l-0.79,0.18l-0.49-1.25L152.78,47.59z"/>
			<path class="st1" d="M163.98,50.35l0.09-0.88l-1.34,0.18v-1.55c1.25-0.06,2.2-0.09,2.82-0.09c1.09,0.02,2.15,0.05,3.16,0.09
				l-0.03,1.12l-3.16,0.06l-0.15,1l3.77,0.12l-0.03,1.09l-3.83,0.06l-0.06,1.61c0.69,0.04,1.85-0.03,3.49-0.21l0.21,1.31l-1.28,0.12
				c-0.89,0.08-1.7,0.11-2.43,0.09c-0.53-0.02-0.88-0.1-1.06-0.24c-0.24-0.2-0.35-0.5-0.33-0.88l0.06-1.64l-1.52,0.18v-1.43
				L163.98,50.35z"/>
			<path class="st1" d="M174.26,50.35l0.09-0.88l-1.34,0.18v-1.55c1.25-0.06,2.2-0.09,2.82-0.09c1.09,0.02,2.15,0.05,3.16,0.09
				l-0.03,1.12l-3.16,0.06l-0.15,1l3.77,0.12l-0.03,1.09l-3.83,0.06l-0.06,1.61c0.69,0.04,1.85-0.03,3.49-0.21l0.21,1.31l-1.28,0.12
				c-0.89,0.08-1.7,0.11-2.43,0.09c-0.53-0.02-0.88-0.1-1.06-0.24c-0.24-0.2-0.35-0.5-0.33-0.88l0.06-1.64l-1.52,0.18v-1.43
				L174.26,50.35z"/>
			<path class="st1" d="M183.68,47.77l2.55,1.34l-0.85,1.31l-2.52-1.52L183.68,47.77z M188.81,50.14l0.67,1.21l-5.34,3.43
				l-0.94-1.28L188.81,50.14z"/>
			<path class="st1" d="M195.23,49.17l0.52-1.28l1.19,0.24l-0.3,0.91l1.06-0.09c0.26-0.02,0.53,0,0.79,0.06l-0.4-1l0.67-0.15
				l0.43,1.12l-0.43,0.12c0.2,0.1,0.35,0.21,0.43,0.33c0.28,0.43,0.41,0.85,0.36,1.28l-0.36,3.83l-1.58,0.03l0.36-4.46l-1.73,0.24
				l-1.09,4.28l-1.49-0.33l1.06-3.67l-1.76,0.36l-0.03-1.43L195.23,49.17z M199.55,47.65l0.45,1.09l-0.7,0.18l-0.39-1.09
				L199.55,47.65z"/>
		</g>
	</g>
</g>
</svg>
